font.ufo
<glyph name="Alpha" format="1">
  <advance width="520"/>
  <outline>
    <component base="A"/>
    <contour>
      <point x="260" y="680" type="move" name="aboveUC"/>
    </contour>
    <contour>
      <point x="260" y="-20" type="move" name="belowLC"/>
    </contour>
  </outline>
</glyph>
<glyph name="Dhook" format="1">
  <advance width="728"/>
  <outline>
    <contour>
      <point x="376" y="660" type="line"/>
      <point x="228" y="660" type="line" smooth="yes"/>
      <point x="117" y="660"/>
      <point x="48" y="615"/>
      <point x="48" y="514" type="curve" smooth="yes"/>
      <point x="48" y="465"/>
      <point x="65" y="425"/>
      <point x="98" y="401" type="curve"/>
      <point x="117" y="427" type="line"/>
      <point x="92" y="447"/>
      <point x="80" y="476"/>
      <point x="80" y="512" type="curve" smooth="yes"/>
      <point x="80" y="599"/>
      <point x="138" y="632"/>
      <point x="225" y="632" type="curve" smooth="yes"/>
      <point x="372" y="632" type="line"/>
    </contour>
    <component base="D" xOffset="128"/>
    <contour>
      <point x="428" y="682" type="move" name="aboveUC"/>
    </contour>
    <contour>
      <point x="426" y="-22" type="move" name="belowLC"/>
    </contour>
  </outline>
</glyph>
<glyph name="Dhook.sc" format="1">
  <advance width="618"/>
  <outline>
    <contour>
      <point x="93" y="301" type="curve"/>
      <point x="110" y="325" type="line"/>
      <point x="88" y="340"/>
      <point x="79" y="365"/>
      <point x="79" y="397" type="curve" smooth="yes"/>
      <point x="79" y="458"/>
      <point x="122" y="483"/>
      <point x="184" y="483" type="curve" smooth="yes"/>
      <point x="286" y="483" type="line"/>
      <point x="286" y="510" type="line"/>
      <point x="185" y="510" type="line" smooth="yes"/>
      <point x="101" y="510"/>
      <point x="48" y="473"/>
      <point x="48" y="393" type="curve" smooth="yes"/>
      <point x="48" y="352"/>
      <point x="63" y="320"/>
    </contour>
    <component base="D.sc" xOffset="84"/>
    <contour>
      <point x="357" y="562" type="move" name="aboveUC"/>
    </contour>
    <contour>
      <point x="352" y="-22" type="move" name="belowLC"/>
    </contour>
  </outline>
</glyph>
<glyph name="Eopen.sc" format="1">
  <advance width="475"/>
  <outline>
    <contour>
      <point x="231" y="-12" type="curve" smooth="yes"/>
      <point x="317" y="-12"/>
      <point x="371" y="12"/>
      <point x="426" y="64" type="curve"/>
      <point x="405" y="88" type="line"/>
      <point x="351" y="37"/>
      <point x="307" y="18"/>
      <point x="231" y="18" type="curve" smooth="yes"/>
      <point x="149" y="18"/>
      <point x="77" y="62"/>
      <point x="77" y="140" type="curve" smooth="yes"/>
      <point x="77" y="220"/>
      <point x="147" y="258"/>
      <point x="261" y="258" type="curve" smooth="yes"/>
      <point x="315" y="258" type="line"/>
      <point x="315" y="284" type="line"/>
      <point x="277" y="284" type="line" smooth="yes"/>
      <point x="157" y="284"/>
      <point x="107" y="320"/>
      <point x="107" y="390" type="curve" smooth="yes"/>
      <point x="107" y="452"/>
      <point x="163" y="492"/>
      <point x="237" y="492" type="curve" smooth="yes"/>
      <point x="293" y="492"/>
      <point x="345" y="470"/>
      <point x="377" y="438" type="curve"/>
      <point x="397" y="462" type="line"/>
      <point x="365" y="494"/>
      <point x="303" y="522"/>
      <point x="237" y="522" type="curve" smooth="yes"/>
      <point x="149" y="522"/>
      <point x="75" y="470"/>
      <point x="75" y="392" type="curve" smooth="yes"/>
      <point x="75" y="334"/>
      <point x="109" y="290"/>
      <point x="167" y="274" type="curve"/>
      <point x="167" y="270" type="line"/>
      <point x="97" y="260"/>
      <point x="45" y="216"/>
      <point x="45" y="141" type="curve" smooth="yes"/>
      <point x="45" y="48"/>
      <point x="129" y="-12"/>
    </contour>
    <contour>
      <point x="231" y="582" type="move" name="aboveUC"/>
    </contour>
    <contour>
      <point x="230" y="0" type="move" name="baseLC"/>
    </contour>
    <contour>
      <point x="230" y="-22" type="move" name="belowLC"/>
    </contour>
  </outline>
</glyph>
<glyph name="Glottalstoplatin" format="1">
  <advance width="392"/>
  <outline>
    <contour>
      <point x="160" y="0" type="line"/>
      <point x="190" y="0" type="line"/>
      <point x="190" y="246" type="line"/>
      <point x="314" y="304"/>
      <point x="390" y="366"/>
      <point x="390" y="490" type="curve" smooth="yes"/>
      <point x="390" y="608"/>
      <point x="304" y="672"/>
      <point x="184" y="672" type="curve" smooth="yes"/>
      <point x="78" y="672"/>
      <point x="26" y="620"/>
      <point x="-18" y="576" type="curve"/>
      <point x="2" y="554" type="line"/>
      <point x="44" y="598"/>
      <point x="90" y="644"/>
      <point x="186" y="644" type="curve" smooth="yes"/>
      <point x="300" y="644"/>
      <point x="358" y="582"/>
      <point x="358" y="492" type="curve" smooth="yes"/>
      <point x="358" y="386"/>
      <point x="300" y="326"/>
      <point x="160" y="268" type="curve"/>
    </contour>
  </outline>
</glyph>
<glyph name="I.a" format="1">
  <advance width="300"/>
  <outline>
    <contour>
      <point x="42" y="0" type="line"/>
      <point x="258" y="0" type="line"/>
      <point x="258" y="28" type="line"/>
      <point x="166" y="28" type="line"/>
      <point x="166" y="632" type="line"/>
      <point x="258" y="632" type="line"/>
      <point x="258" y="660" type="line"/>
      <point x="42" y="660" type="line"/>
      <point x="42" y="632" type="line"/>
      <point x="134" y="632" type="line"/>
      <point x="134" y="28" type="line"/>
      <point x="42" y="28" type="line"/>
    </contour>
    <contour>
      <point x="150" y="680" type="move" name="aboveUC"/>
    </contour>
    <contour>
      <point x="124" y="0" type="move" name="ogonekUC"/>
    </contour>
    <contour>
      <point x="152" y="-20" type="move" name="belowLC"/>
    </contour>
  </outline>
</glyph>
<glyph name="Iota" format="1">
  <advance width="232"/>
  <outline>
    <component base="I"/>
    <contour>
      <point x="116" y="680" type="move" name="aboveUC"/>
    </contour>
  </outline>
</glyph>
<glyph name="Iota.sc" format="1">
  <advance width="232"/>
  <outline>
    <component base="I.sc"/>
    <contour>
      <point x="116" y="560" type="move" name="aboveLC"/>
    </contour>
    <contour>
      <point x="116" y="-20" type="move" name="belowLC"/>
    </contour>
  </outline>
</glyph>
<glyph name="Jcrossedtail" format="1">
  <advance width="419"/>
  <outline>
    <contour>
      <point x="351" y="-21" type="curve"/>
      <point x="373" y="-4" type="line"/>
      <point x="301" y="110"/>
      <point x="249" y="186"/>
      <point x="155" y="186" type="curve" smooth="yes"/>
      <point x="74" y="186"/>
      <point x="30" y="142"/>
      <point x="30" y="91" type="curve" smooth="yes"/>
      <point x="30" y="40"/>
      <point x="79" y="-12"/>
      <point x="159" y="-12" type="curve" smooth="yes"/>
      <point x="267" y="-12"/>
      <point x="319" y="73"/>
      <point x="319" y="210" type="curve" smooth="yes"/>
      <point x="319" y="660" type="line"/>
      <point x="287" y="660" type="line"/>
      <point x="287" y="218" type="line" smooth="yes"/>
      <point x="287" y="128"/>
      <point x="264" y="18"/>
      <point x="159" y="18" type="curve" smooth="yes"/>
      <point x="101" y="18"/>
      <point x="62" y="48"/>
      <point x="62" y="89" type="curve" smooth="yes"/>
      <point x="62" y="125"/>
      <point x="88" y="156"/>
      <point x="151" y="156" type="curve" smooth="yes"/>
      <point x="235" y="156"/>
      <point x="281" y="89"/>
    </contour>
    <contour>
      <point x="299" y="682" type="move" name="aboveUC"/>
    </contour>
    <contour>
      <point x="201" y="-22" type="move" name="belowLC"/>
    </contour>
  </outline>
</glyph>
<glyph name="Kturned" format="1">
  <advance width="550"/>
  <outline>
    <component base="K" xScale="-1" xOffset="550"/>
    <contour>
      <point x="246" y="682" type="move" name="aboveUC"/>
    </contour>
    <contour>
      <point x="266" y="-22" type="move" name="belowLC"/>
    </contour>
  </outline>
</glyph>
<glyph name="Nhookleft" format="1">
  <advance width="690"/>
  <outline>
    <contour>
      <point x="62" y="-12" type="curve" smooth="yes"/>
      <point x="143" y="-12"/>
      <point x="212" y="74"/>
      <point x="212" y="342" type="curve" smooth="yes"/>
      <point x="212" y="532" type="line"/>
      <point x="257" y="590"/>
      <point x="340" y="642"/>
      <point x="402" y="642" type="curve" smooth="yes"/>
      <point x="518" y="642"/>
      <point x="600" y="574"/>
      <point x="600" y="338" type="curve" smooth="yes"/>
      <point x="600" y="0" type="line"/>
      <point x="634" y="0" type="line"/>
      <point x="634" y="336" type="line" smooth="yes"/>
      <point x="634" y="582"/>
      <point x="540" y="672"/>
      <point x="404" y="672" type="curve" smooth="yes"/>
      <point x="332" y="672"/>
      <point x="258" y="622"/>
      <point x="212" y="570" type="curve"/>
      <point x="212" y="660" type="line"/>
      <point x="180" y="660" type="line"/>
      <point x="180" y="336" type="line" smooth="yes"/>
      <point x="180" y="98"/>
      <point x="125" y="20"/>
      <point x="60" y="20" type="curve" smooth="yes"/>
      <point x="36" y="20"/>
      <point x="20" y="24"/>
      <point x="4" y="32" type="curve"/>
      <point x="-8" y="0" type="line"/>
      <point x="10" y="-8"/>
      <point x="39" y="-12"/>
    </contour>
    <contour>
      <point x="410" y="682" type="move" name="aboveUC"/>
    </contour>
  </outline>
</glyph>
<glyph name="Ohorn.sc" format="1">
  <advance width="568"/>
  <outline>
    <component base="O.sc"/>
    <component base="horncmb" xOffset="390" yOffset="32"/>
    <contour>
      <point x="284" y="560" type="move" name="aboveUC"/>
    </contour>
    <contour>
      <point x="284" y="-20" type="move" name="belowLC"/>
    </contour>
  </outline>
</glyph>
<glyph name="Omegalatin" format="1">
  <advance width="848"/>
  <outline>
    <contour>
      <point x="257" y="-12" type="curve" smooth="yes"/>
      <point x="327" y="-12"/>
      <point x="393" y="26"/>
      <point x="423" y="101" type="curve"/>
      <point x="429" y="101" type="line"/>
      <point x="459" y="26"/>
      <point x="521" y="-12"/>
      <point x="591" y="-12" type="curve" smooth="yes"/>
      <point x="704" y="-12"/>
      <point x="790" y="78"/>
      <point x="790" y="289" type="curve" smooth="yes"/>
      <point x="790" y="453"/>
      <point x="739" y="553"/>
      <point x="661" y="663" type="curve"/>
      <point x="635" y="644" type="line"/>
      <point x="715" y="530"/>
      <point x="756" y="447"/>
      <point x="756" y="289" type="curve" smooth="yes"/>
      <point x="756" y="99"/>
      <point x="686" y="18"/>
      <point x="592" y="18" type="curve" smooth="yes"/>
      <point x="521" y="18"/>
      <point x="443" y="61"/>
      <point x="443" y="217" type="curve" smooth="yes"/>
      <point x="443" y="394" type="line"/>
      <point x="412" y="394" type="line"/>
      <point x="412" y="217" type="line" smooth="yes"/>
      <point x="412" y="62"/>
      <point x="335" y="18"/>
      <point x="262" y="18" type="curve" smooth="yes"/>
      <point x="172" y="18"/>
      <point x="92" y="107"/>
      <point x="92" y="281" type="curve" smooth="yes"/>
      <point x="92" y="445"/>
      <point x="139" y="536"/>
      <point x="217" y="641" type="curve"/>
      <point x="192" y="663" type="line"/>
      <point x="117" y="557"/>
      <point x="58" y="448"/>
      <point x="58" y="287" type="curve" smooth="yes"/>
      <point x="58" y="83"/>
      <point x="152" y="-12"/>
    </contour>
    <contour>
      <point x="424" y="682" type="move" name="aboveUC"/>
    </contour>
    <contour>
      <point x="424" y="-22" type="move" name="belowLC"/>
    </contour>
  </outline>
</glyph>
<glyph name="Oopen" format="1">
  <advance width="562"/>
  <outline>
    <contour>
      <point x="246" y="-12" type="curve" smooth="yes"/>
      <point x="394" y="-12"/>
      <point x="506" y="116"/>
      <point x="506" y="332" type="curve" smooth="yes"/>
      <point x="506" y="548"/>
      <point x="398" y="672"/>
      <point x="244" y="672" type="curve" smooth="yes"/>
      <point x="166" y="672"/>
      <point x="96" y="634"/>
      <point x="60" y="594" type="curve"/>
      <point x="80" y="572" type="line"/>
      <point x="118" y="614"/>
      <point x="180" y="642"/>
      <point x="244" y="642" type="curve" smooth="yes"/>
      <point x="380" y="642"/>
      <point x="472" y="526"/>
      <point x="472" y="338" type="curve" smooth="yes"/>
      <point x="472" y="134"/>
      <point x="374" y="18"/>
      <point x="244" y="18" type="curve" smooth="yes"/>
      <point x="168" y="18"/>
      <point x="112" y="46"/>
      <point x="60" y="102" type="curve"/>
      <point x="40" y="82" type="line"/>
      <point x="92" y="24"/>
      <point x="154" y="-12"/>
    </contour>
    <contour>
      <point x="260" y="682" type="move" name="aboveUC"/>
    </contour>
    <contour>
      <point x="240" y="0" type="move" name="baseLC"/>
    </contour>
    <contour>
      <point x="240" y="-22" type="move" name="belowLC"/>
    </contour>
  </outline>
</glyph>
<glyph name="Oopen.sc" format="1">
  <advance width="490"/>
  <outline>
    <contour>
      <point x="203" y="-12" type="curve" smooth="yes"/>
      <point x="341" y="-12"/>
      <point x="434" y="92"/>
      <point x="434" y="256" type="curve" smooth="yes"/>
      <point x="434" y="418"/>
      <point x="340" y="522"/>
      <point x="198" y="522" type="curve" smooth="yes"/>
      <point x="134" y="522"/>
      <point x="86" y="492"/>
      <point x="56" y="460" type="curve"/>
      <point x="76" y="438" type="line"/>
      <point x="106" y="470"/>
      <point x="146" y="492"/>
      <point x="198" y="492" type="curve" smooth="yes"/>
      <point x="325" y="492"/>
      <point x="400" y="401"/>
      <point x="400" y="256" type="curve" smooth="yes"/>
      <point x="400" y="110"/>
      <point x="325" y="18"/>
      <point x="202" y="18" type="curve" smooth="yes"/>
      <point x="143" y="18"/>
      <point x="100" y="38"/>
      <point x="60" y="82" type="curve"/>
      <point x="40" y="62" type="line"/>
      <point x="84" y="14"/>
      <point x="131" y="-12"/>
    </contour>
    <contour>
      <point x="210" y="582" type="move" name="aboveUC"/>
    </contour>
    <contour>
      <point x="211" y="0" type="move" name="baseLC"/>
    </contour>
    <contour>
      <point x="211" y="-22" type="move" name="belowLC"/>
    </contour>
  </outline>
</glyph>
<glyph name="Rho" format="1">
  <advance width="542"/>
  <outline>
    <component base="P"/>
    <contour>
      <point x="292" y="680" type="move" name="aboveUC"/>
    </contour>
  </outline>
</glyph>
<glyph name="Rho.sc" format="1">
  <advance width="492"/>
  <outline>
    <component base="P.sc"/>
    <contour>
      <point x="274" y="560" type="move" name="aboveLC"/>
    </contour>
    <contour>
      <point x="118" y="-20" type="move" name="belowLC"/>
    </contour>
  </outline>
</glyph>
<glyph name="Rstroke" format="1">
  <advance width="547"/>
  <outline>
    <contour>
      <point x="34" y="312" type="line"/>
      <point x="316" y="312" type="line"/>
      <point x="316" y="340" type="line"/>
      <point x="113" y="340" type="line"/>
      <point x="34" y="338" type="line"/>
    </contour>
    <component base="R" xOffset="13"/>
  </outline>
</glyph>
<glyph name="Rtail.alt" format="1">
  <advance width="534"/>
  <outline>
    <contour>
      <point x="100" y="0" type="line"/>
      <point x="132" y="0" type="line"/>
      <point x="132" y="312" type="line"/>
      <point x="282" y="312" type="line" smooth="yes"/>
      <point x="412" y="312"/>
      <point x="494" y="374"/>
      <point x="494" y="490" type="curve" smooth="yes"/>
      <point x="494" y="612"/>
      <point x="412" y="660"/>
      <point x="282" y="660" type="curve" smooth="yes"/>
      <point x="100" y="660" type="line"/>
    </contour>
    <contour>
      <point x="132" y="340" type="line"/>
      <point x="132" y="632" type="line"/>
      <point x="270" y="632" type="line" smooth="yes"/>
      <point x="392" y="632"/>
      <point x="460" y="594"/>
      <point x="460" y="490" type="curve" smooth="yes"/>
      <point x="460" y="388"/>
      <point x="392" y="340"/>
      <point x="270" y="340" type="curve" smooth="yes"/>
    </contour>
    <contour>
      <point x="466" y="0" type="line"/>
      <point x="504" y="0" type="line"/>
      <point x="310" y="324" type="line"/>
      <point x="274" y="322" type="line"/>
    </contour>
    <contour>
      <point x="132" y="637" type="line"/>
      <point x="100" y="660" type="line"/>
      <point x="100" y="-20" type="line" smooth="yes"/>
      <point x="100" y="-113"/>
      <point x="134" y="-152"/>
      <point x="200" y="-152" type="curve" smooth="yes"/>
      <point x="220" y="-152"/>
      <point x="244" y="-146"/>
      <point x="258" y="-140" type="curve"/>
      <point x="250" y="-110" type="line"/>
      <point x="238" y="-114"/>
      <point x="218" y="-120"/>
      <point x="198" y="-120" type="curve" smooth="yes"/>
      <point x="142" y="-120"/>
      <point x="132" y="-76"/>
      <point x="132" y="0" type="curve" smooth="yes"/>
    </contour>
  </outline>
</glyph>
<glyph name="Saltillo" format="1">
  <advance width="248"/>
  <outline>
    <contour>
      <point x="112" y="172" type="line"/>
      <point x="136" y="172" type="line"/>
      <point x="140" y="598" type="line"/>
      <point x="140" y="660" type="line"/>
      <point x="108" y="660" type="line"/>
      <point x="108" y="598" type="line"/>
    </contour>
  </outline>
</glyph>
<glyph name="Thook" format="1">
  <advance width="580"/>
  <outline>
    <contour>
      <point x="304" y="0" type="line"/>
      <point x="336" y="0" type="line"/>
      <point x="336" y="632" type="line"/>
      <point x="550" y="632" type="line"/>
      <point x="550" y="660" type="line"/>
      <point x="228" y="660" type="line" smooth="yes"/>
      <point x="117" y="660"/>
      <point x="48" y="615"/>
      <point x="48" y="514" type="curve" smooth="yes"/>
      <point x="48" y="465"/>
      <point x="65" y="425"/>
      <point x="98" y="401" type="curve"/>
      <point x="117" y="427" type="line"/>
      <point x="92" y="447"/>
      <point x="80" y="476"/>
      <point x="80" y="512" type="curve" smooth="yes"/>
      <point x="80" y="599"/>
      <point x="138" y="632"/>
      <point x="225" y="632" type="curve" smooth="yes"/>
      <point x="304" y="632" type="line"/>
    </contour>
  </outline>
</glyph>
<glyph name="Tturned" format="1">
  <advance width="520"/>
  <outline>
    <component base="T" xScale="-1" yScale="-1" xOffset="520" yOffset="660"/>
    <contour>
      <point x="258" y="682" type="move" name="aboveUC"/>
    </contour>
    <contour>
      <point x="260" y="0" type="move" name="baseLC"/>
    </contour>
    <contour>
      <point x="260" y="-22" type="move" name="belowLC"/>
    </contour>
  </outline>
</glyph>
<glyph name="Upsilon" format="1">
  <advance width="436"/>
  <outline>
    <component base="Y"/>
    <contour>
      <point x="218" y="680" type="move" name="aboveUC"/>
    </contour>
  </outline>
</glyph>
<glyph name="Whook" format="1">
  <advance width="822"/>
  <outline>
    <contour>
      <point x="184" y="0" type="line"/>
      <point x="216" y="0" type="line"/>
      <point x="342" y="474" type="line"/>
      <point x="354" y="526"/>
      <point x="368" y="570"/>
      <point x="380" y="622" type="curve"/>
      <point x="384" y="622" type="line"/>
      <point x="396" y="570"/>
      <point x="408" y="526"/>
      <point x="420" y="474" type="curve"/>
      <point x="548" y="0" type="line"/>
      <point x="580" y="0" type="line"/>
      <point x="708" y="557" type="line" smooth="yes"/>
      <point x="719" y="605"/>
      <point x="738" y="642"/>
      <point x="778" y="642" type="curve" smooth="yes"/>
      <point x="806" y="642"/>
      <point x="820" y="626"/>
      <point x="834" y="610" type="curve"/>
      <point x="854" y="630" type="line"/>
      <point x="835" y="654"/>
      <point x="812" y="672"/>
      <point x="775" y="672" type="curve" smooth="yes"/>
      <point x="731" y="672"/>
      <point x="695" y="637"/>
      <point x="680" y="570" type="curve" smooth="yes"/>
      <point x="612" y="260" type="line"/>
      <point x="596" y="188"/>
      <point x="582" y="116"/>
      <point x="566" y="44" type="curve"/>
      <point x="562" y="44" type="line"/>
      <point x="544" y="116"/>
      <point x="526" y="188"/>
      <point x="508" y="260" type="curve"/>
      <point x="400" y="660" type="line"/>
      <point x="364" y="660" type="line"/>
      <point x="256" y="260" type="line"/>
      <point x="238" y="188"/>
      <point x="220" y="116"/>
      <point x="204" y="44" type="curve"/>
      <point x="200" y="44" type="line"/>
      <point x="184" y="116"/>
      <point x="168" y="188"/>
      <point x="152" y="260" type="curve"/>
      <point x="64" y="660" type="line"/>
      <point x="30" y="660" type="line"/>
    </contour>
  </outline>
</glyph>
<glyph name="alphalatin" format="1">
  <advance width="540"/>
  <outline>
    <contour>
      <point x="252" y="-12" type="curve" smooth="yes"/>
      <point x="318" y="-12"/>
      <point x="372" y="24"/>
      <point x="412" y="64" type="curve"/>
      <point x="414" y="64" type="line"/>
      <point x="414" y="52" type="line" smooth="yes"/>
      <point x="414" y="6"/>
      <point x="432" y="-12"/>
      <point x="462" y="-12" type="curve"/>
      <point x="474" y="-12"/>
      <point x="480" y="-10"/>
      <point x="488" y="-8" type="curve"/>
      <point x="482" y="18" type="line" smooth="yes"/>
      <point x="472" y="16"/>
      <point x="468" y="16"/>
      <point x="464" y="16" type="curve" smooth="yes"/>
      <point x="452" y="16"/>
      <point x="444" y="26"/>
      <point x="444" y="46" type="curve"/>
      <point x="444" y="478" type="line"/>
      <point x="416" y="478" type="line"/>
      <point x="414" y="432" type="line"/>
      <point x="412" y="432" type="line" smooth="yes"/>
      <point x="366" y="468"/>
      <point x="326" y="490"/>
      <point x="268" y="490" type="curve" smooth="yes"/>
      <point x="152" y="490"/>
      <point x="54" y="392"/>
    </contour>
    <contour>
      <point x="254" y="16" type="curve" smooth="yes"/>
      <point x="146" y="16"/>
      <point x="86" y="106"/>
      <point x="86" y="238" type="curve" smooth="yes"/>
      <point x="86" y="362"/>
      <point x="164" y="462"/>
      <point x="266" y="462" type="curve" smooth="yes"/>
      <point x="316" y="462"/>
      <point x="360" y="444"/>
      <point x="414" y="396" type="curve"/>
      <point x="414" y="100" type="line"/>
      <point x="360" y="46"/>
      <point x="310" y="16"/>
    </contour>
    <contour>
      <point x="268" y="502" type="move" name="aboveLC"/>
    </contour>
    <contour>
      <point x="270" y="0" type="move" name="baseLC"/>
    </contour>
    <contour>
      <point x="268" y="-22" type="move" name="belowLC"/>
    </contour>
  </outline>
</glyph>
<glyph name="chook" format="1">
  <advance width="446"/>
  <outline>
    <contour>
      <point x="378" y="430" type="curve"/>
      <point x="408" y="430" type="line"/>
      <point x="378" y="474"/>
      <point x="374" y="499"/>
      <point x="374" y="537" type="curve" smooth="yes"/>
      <point x="374" y="565"/>
      <point x="392" y="592"/>
      <point x="430" y="592" type="curve" smooth="yes"/>
      <point x="446" y="592"/>
      <point x="457" y="586"/>
      <point x="468" y="582" type="curve"/>
      <point x="476" y="608" type="line"/>
      <point x="463" y="614"/>
      <point x="448" y="620"/>
      <point x="432" y="620" type="curve" smooth="yes"/>
      <point x="384" y="620"/>
      <point x="344" y="592"/>
      <point x="344" y="540" type="curve" smooth="yes"/>
      <point x="344" y="500"/>
      <point x="348" y="475"/>
    </contour>
    <component base="c"/>
  </outline>
</glyph>
<glyph name="e" format="1">
  <advance width="478"/>
  <outline>
    <contour>
      <point x="272" y="-12" type="curve" smooth="yes"/>
      <point x="344" y="-12"/>
      <point x="384" y="12"/>
      <point x="420" y="34" type="curve"/>
      <point x="406" y="60" type="line"/>
      <point x="370" y="34"/>
      <point x="328" y="16"/>
      <point x="274" y="16" type="curve" smooth="yes"/>
      <point x="168" y="16"/>
      <point x="86" y="100"/>
      <point x="86" y="238" type="curve" smooth="yes"/>
      <point x="86" y="389"/>
      <point x="175" y="462"/>
      <point x="260" y="462" type="curve" smooth="yes"/>
      <point x="350" y="462"/>
      <point x="410" y="398"/>
      <point x="410" y="266" type="curve"/>
      <point x="76" y="266" type="line"/>
      <point x="76" y="238" type="line"/>
      <point x="438" y="238" type="line"/>
      <point x="440" y="250"/>
      <point x="440" y="260"/>
      <point x="440" y="270" type="curve" smooth="yes"/>
      <point x="440" y="412"/>
      <point x="370" y="490"/>
      <point x="260" y="490" type="curve" smooth="yes"/>
      <point x="154" y="490"/>
      <point x="54" y="394"/>
      <point x="54" y="238" type="curve" smooth="yes"/>
      <point x="54" y="82"/>
      <point x="152" y="-12"/>
    </contour>
    <contour>
      <point x="382" y="0" type="move" name="ogonekLC"/>
    </contour>
    <contour>
      <point x="260" y="500" type="move" name="aboveLC"/>
    </contour>
    <contour>
      <point x="250" y="0" type="move" name="baseLC"/>
    </contour>
    <contour>
      <point x="250" y="-20" type="move" name="belowLC"/>
    </contour>
  </outline>
</glyph>
<glyph name="eopenreversedclosed" format="1">
  <advance width="530"/>
  <outline>
    <contour>
      <point x="280" y="-12" type="curve" smooth="yes"/>
      <point x="400" y="-12"/>
      <point x="476" y="46"/>
      <point x="476" y="128" type="curve" smooth="yes"/>
      <point x="476" y="200"/>
      <point x="418" y="238"/>
      <point x="366" y="252" type="curve"/>
      <point x="366" y="256" type="line"/>
      <point x="416" y="276"/>
      <point x="448" y="318"/>
      <point x="448" y="368" type="curve" smooth="yes"/>
      <point x="448" y="448"/>
      <point x="378" y="490"/>
      <point x="286" y="490" type="curve" smooth="yes"/>
      <point x="154" y="490"/>
      <point x="54" y="404"/>
      <point x="54" y="238" type="curve" smooth="yes"/>
      <point x="54" y="74"/>
      <point x="152" y="-12"/>
    </contour>
    <contour>
      <point x="278" y="16" type="curve" smooth="yes"/>
      <point x="162" y="16"/>
      <point x="86" y="100"/>
      <point x="86" y="238" type="curve" smooth="yes"/>
      <point x="86" y="376"/>
      <point x="166" y="462"/>
      <point x="286" y="462" type="curve" smooth="yes"/>
      <point x="360" y="462"/>
      <point x="416" y="432"/>
      <point x="416" y="366" type="curve" smooth="yes"/>
      <point x="416" y="310"/>
      <point x="371" y="266"/>
      <point x="268" y="266" type="curve" smooth="yes"/>
      <point x="244" y="266" type="line"/>
      <point x="244" y="238" type="line"/>
      <point x="282" y="238" type="line" smooth="yes"/>
      <point x="384" y="238"/>
      <point x="444" y="197"/>
      <point x="444" y="129" type="curve" smooth="yes"/>
      <point x="444" y="60"/>
      <point x="380" y="16"/>
    </contour>
    <contour>
      <point x="280" y="500" type="move" name="aboveLC"/>
    </contour>
    <contour>
      <point x="260" y="-20" type="move" name="belowLC"/>
    </contour>
  </outline>
</glyph>
<glyph name="er" format="1">
  <advance width="540"/>
  <outline>
    <component base="p"/>
    <contour>
      <point x="278" y="500" type="move" name="aboveLC"/>
    </contour>
  </outline>
</glyph>
<glyph name="eshcurl" format="1">
  <advance width="393"/>
  <outline>
    <contour>
      <point x="297" y="-22" type="curve" smooth="yes"/>
      <point x="297" y="600" type="line" smooth="yes"/>
      <point x="297" y="662"/>
      <point x="309" y="708"/>
      <point x="373" y="708" type="curve" smooth="yes"/>
      <point x="389" y="708"/>
      <point x="405" y="702"/>
      <point x="415" y="698" type="curve"/>
      <point x="423" y="724" type="line"/>
      <point x="411" y="730"/>
      <point x="392" y="736"/>
      <point x="375" y="736" type="curve" smooth="yes"/>
      <point x="302" y="736"/>
      <point x="267" y="696"/>
      <point x="267" y="604" type="curve" smooth="yes"/>
      <point x="267" y="-24" type="line" smooth="yes"/>
      <point x="267" y="-125"/>
      <point x="205" y="-206"/>
      <point x="122" y="-206" type="curve" smooth="yes"/>
      <point x="74" y="-206"/>
      <point x="36" y="-180"/>
      <point x="36" y="-142" type="curve" smooth="yes"/>
      <point x="36" y="-116"/>
      <point x="52" y="-88"/>
      <point x="93" y="-88" type="curve" smooth="yes"/>
      <point x="150" y="-88"/>
      <point x="210" y="-152"/>
      <point x="253" y="-238" type="curve"/>
      <point x="279" y="-222" type="line"/>
      <point x="223" y="-126"/>
      <point x="170" y="-60"/>
      <point x="90" y="-60" type="curve" smooth="yes"/>
      <point x="37" y="-60"/>
      <point x="4" y="-96"/>
      <point x="4" y="-140" type="curve" smooth="yes"/>
      <point x="4" y="-192"/>
      <point x="49" y="-234"/>
      <point x="121" y="-234" type="curve" smooth="yes"/>
      <point x="216" y="-234"/>
      <point x="297" y="-145"/>
    </contour>
  </outline>
</glyph>
<glyph name="g.a" format="1">
  <advance width="540"/>
  <outline>
    <component base="gscript"/>
    <contour>
      <point x="274" y="500" type="move" name="aboveLC"/>
    </contour>
    <contour>
      <point x="260" y="-230" type="move" name="belowLC"/>
    </contour>
  </outline>
</glyph>
<glyph name="glottalstopstroke" format="1">
  <advance width="412"/>
  <outline>
    <contour>
      <point x="170" y="0" type="line"/>
      <point x="200" y="0" type="line"/>
      <point x="200" y="302" type="line"/>
      <point x="392" y="302" type="line"/>
      <point x="392" y="330" type="line"/>
      <point x="236" y="330" type="line"/>
      <point x="322" y="385"/>
      <point x="384" y="458"/>
      <point x="384" y="552" type="curve" smooth="yes"/>
      <point x="384" y="670"/>
      <point x="304" y="734"/>
      <point x="198" y="734" type="curve" smooth="yes"/>
      <point x="106" y="734"/>
      <point x="52" y="688"/>
      <point x="16" y="648" type="curve"/>
      <point x="36" y="626" type="line"/>
      <point x="70" y="666"/>
      <point x="118" y="706"/>
      <point x="200" y="706" type="curve" smooth="yes"/>
      <point x="298" y="706"/>
      <point x="352" y="644"/>
      <point x="352" y="554" type="curve" smooth="yes"/>
      <point x="352" y="464"/>
      <point x="292" y="392"/>
      <point x="180" y="330" type="curve"/>
      <point x="80" y="330" type="line"/>
      <point x="4" y="326" type="line"/>
      <point x="4" y="302" type="line"/>
      <point x="170" y="302" type="line"/>
    </contour>
    <contour>
      <point x="206" y="730" type="move" name="aboveUC"/>
    </contour>
    <contour>
      <point x="206" y="-20" type="move" name="belowLC"/>
    </contour>
  </outline>
</glyph>
<glyph name="glottalstopstrokereversed" format="1">
  <advance width="412"/>
  <outline>
    <contour>
      <point x="212" y="0" type="line"/>
      <point x="242" y="0" type="line"/>
      <point x="242" y="302" type="line"/>
      <point x="408" y="302" type="line"/>
      <point x="408" y="330" type="line"/>
      <point x="232" y="330" type="line"/>
      <point x="120" y="392"/>
      <point x="60" y="464"/>
      <point x="60" y="554" type="curve" smooth="yes"/>
      <point x="60" y="644"/>
      <point x="118" y="706"/>
      <point x="222" y="706" type="curve" smooth="yes"/>
      <point x="299" y="706"/>
      <point x="344" y="666"/>
      <point x="376" y="626" type="curve"/>
      <point x="396" y="648" type="line"/>
      <point x="362" y="688"/>
      <point x="311" y="734"/>
      <point x="224" y="734" type="curve" smooth="yes"/>
      <point x="112" y="734"/>
      <point x="28" y="670"/>
      <point x="28" y="552" type="curve" smooth="yes"/>
      <point x="28" y="458"/>
      <point x="90" y="385"/>
      <point x="176" y="330" type="curve"/>
      <point x="96" y="330" type="line"/>
      <point x="20" y="326" type="line"/>
      <point x="20" y="302" type="line"/>
      <point x="212" y="302" type="line"/>
    </contour>
    <contour>
      <point x="206" y="730" type="move" name="aboveUC"/>
    </contour>
    <contour>
      <point x="206" y="-20" type="move" name="belowLC"/>
    </contour>
  </outline>
</glyph>
<glyph name="gsmallhook" format="1">
  <advance width="482"/>
  <outline>
    <contour>
      <point x="392" y="430" type="curve"/>
      <point x="422" y="430" type="line"/>
      <point x="392" y="474"/>
      <point x="388" y="499"/>
      <point x="388" y="537" type="curve" smooth="yes"/>
      <point x="388" y="565"/>
      <point x="406" y="592"/>
      <point x="444" y="592" type="curve" smooth="yes"/>
      <point x="460" y="592"/>
      <point x="471" y="586"/>
      <point x="482" y="582" type="curve"/>
      <point x="490" y="608" type="line"/>
      <point x="477" y="614"/>
      <point x="462" y="620"/>
      <point x="446" y="620" type="curve" smooth="yes"/>
      <point x="398" y="620"/>
      <point x="358" y="592"/>
      <point x="358" y="540" type="curve" smooth="yes"/>
      <point x="358" y="500"/>
      <point x="362" y="475"/>
    </contour>
    <contour>
      <point x="274" y="-12" type="curve" smooth="yes"/>
      <point x="342" y="-12"/>
      <point x="394" y="15"/>
      <point x="426" y="46" type="curve"/>
      <point x="426" y="234" type="line"/>
      <point x="268" y="234" type="line"/>
      <point x="268" y="206" type="line"/>
      <point x="396" y="206" type="line"/>
      <point x="396" y="59" type="line"/>
      <point x="370" y="35"/>
      <point x="326" y="16"/>
      <point x="277" y="16" type="curve" smooth="yes"/>
      <point x="160" y="16"/>
      <point x="84" y="102"/>
      <point x="84" y="242" type="curve" smooth="yes"/>
      <point x="84" y="376"/>
      <point x="166" y="462"/>
      <point x="280" y="462" type="curve" smooth="yes"/>
      <point x="337" y="462"/>
      <point x="376" y="436"/>
      <point x="402" y="408" type="curve"/>
      <point x="422" y="430" type="line"/>
      <point x="394" y="458"/>
      <point x="349" y="490"/>
      <point x="280" y="490" type="curve" smooth="yes"/>
      <point x="145" y="490"/>
      <point x="54" y="393"/>
      <point x="54" y="242" type="curve" smooth="yes"/>
      <point x="54" y="84"/>
      <point x="143" y="-12"/>
    </contour>
    <contour>
      <point x="298" y="502" type="move" name="aboveUC"/>
    </contour>
    <contour>
      <point x="290" y="-22" type="move" name="belowLC"/>
    </contour>
  </outline>
</glyph>
<glyph name="hfishhooktailturned" format="1">
  <advance width="608"/>
  <outline>
    <contour>
      <point x="570" y="-180" type="curve" smooth="yes"/>
      <point x="586" y="-180"/>
      <point x="608" y="-174"/>
      <point x="618" y="-168" type="curve"/>
      <point x="610" y="-142" type="line"/>
      <point x="600" y="-146"/>
      <point x="584" y="-152"/>
      <point x="568" y="-152" type="curve" smooth="yes"/>
      <point x="524" y="-152"/>
      <point x="512" y="-110"/>
      <point x="512" y="-50" type="curve" smooth="yes"/>
      <point x="512" y="478" type="line"/>
      <point x="482" y="478" type="line"/>
      <point x="482" y="120" type="line"/>
      <point x="420" y="46"/>
      <point x="376" y="16"/>
      <point x="316" y="16" type="curve" smooth="yes"/>
      <point x="234" y="16"/>
      <point x="200" y="68"/>
      <point x="200" y="174" type="curve" smooth="yes"/>
      <point x="200" y="322" type="line" smooth="yes"/>
      <point x="200" y="437"/>
      <point x="135" y="490"/>
      <point x="60" y="490" type="curve" smooth="yes"/>
      <point x="34" y="490"/>
      <point x="14" y="486"/>
      <point x="-4" y="476" type="curve"/>
      <point x="4" y="450" type="line"/>
      <point x="22" y="460"/>
      <point x="38" y="462"/>
      <point x="62" y="462" type="curve" smooth="yes"/>
      <point x="124" y="462"/>
      <point x="170" y="408"/>
      <point x="170" y="318" type="curve"/>
      <point x="170" y="170" type="line" smooth="yes"/>
      <point x="170" y="46"/>
      <point x="216" y="-12"/>
      <point x="314" y="-12" type="curve" smooth="yes"/>
      <point x="380" y="-12"/>
      <point x="428" y="23"/>
      <point x="482" y="84" type="curve"/>
      <point x="482" y="-54" type="line" smooth="yes"/>
      <point x="482" y="-144"/>
      <point x="510" y="-180"/>
    </contour>
    <contour>
      <point x="344" y="502" type="move" name="aboveLC"/>
    </contour>
    <contour>
      <point x="362" y="-22" type="move" name="belowLC"/>
    </contour>
  </outline>
</glyph>
<glyph name="hfishhookturned" format="1">
  <advance width="608"/>
  <outline>
    <contour>
      <point x="482" y="-222" type="line"/>
      <point x="512" y="-222" type="line"/>
      <point x="512" y="478" type="line"/>
      <point x="482" y="478" type="line"/>
      <point x="482" y="120" type="line"/>
      <point x="420" y="46"/>
      <point x="376" y="16"/>
      <point x="316" y="16" type="curve" smooth="yes"/>
      <point x="234" y="16"/>
      <point x="200" y="68"/>
      <point x="200" y="174" type="curve" smooth="yes"/>
      <point x="200" y="322" type="line" smooth="yes"/>
      <point x="200" y="437"/>
      <point x="135" y="490"/>
      <point x="60" y="490" type="curve" smooth="yes"/>
      <point x="34" y="490"/>
      <point x="14" y="486"/>
      <point x="-4" y="476" type="curve"/>
      <point x="4" y="450" type="line"/>
      <point x="22" y="460"/>
      <point x="38" y="462"/>
      <point x="62" y="462" type="curve" smooth="yes"/>
      <point x="124" y="462"/>
      <point x="170" y="408"/>
      <point x="170" y="318" type="curve"/>
      <point x="170" y="170" type="line" smooth="yes"/>
      <point x="170" y="46"/>
      <point x="216" y="-12"/>
      <point x="314" y="-12" type="curve" smooth="yes"/>
      <point x="380" y="-12"/>
      <point x="430" y="24"/>
      <point x="484" y="86" type="curve"/>
      <point x="482" y="-30" type="line"/>
    </contour>
    <contour>
      <point x="344" y="502" type="move" name="aboveLC"/>
    </contour>
    <contour>
      <point x="362" y="-22" type="move" name="belowLC"/>
    </contour>
  </outline>
</glyph>
<glyph name="i" format="1">
  <advance width="222"/>
  <outline>
    <component base="dotlessi"/>
    <component base="dotaccentcmb" xOffset="112"/>
    <contour>
      <point x="111" y="500" type="move" name="aboveUC"/>
    </contour>
    <contour>
      <point x="130" y="0" type="move" name="ogonekLC"/>
    </contour>
    <contour>
      <point x="111" y="0" type="move" name="baseLC"/>
    </contour>
    <contour>
      <point x="110" y="-20" type="move" name="belowLC"/>
    </contour>
  </outline>
</glyph>
<glyph name="istroke" format="1">
  <advance width="230"/>
  <outline>
    <contour>
      <point x="115" y="500" type="move" name="aboveUC"/>
    </contour>
    <contour>
      <point x="115" y="0" type="move" name="baseLC"/>
    </contour>
    <contour>
      <point x="115" y="-20" type="move" name="belowLC"/>
    </contour>
  </outline>
</glyph>
<glyph name="kturned" format="1">
  <advance width="452"/>
  <outline>
    <contour>
      <point x="326" y="-222" type="line"/>
      <point x="356" y="-222" type="line"/>
      <point x="356" y="478" type="line"/>
      <point x="326" y="478" type="line"/>
      <point x="326" y="174" type="line"/>
      <point x="324" y="174" type="line"/>
      <point x="76" y="478" type="line"/>
      <point x="40" y="478" type="line"/>
      <point x="194" y="290" type="line"/>
      <point x="12" y="0" type="line"/>
      <point x="46" y="0" type="line"/>
      <point x="212" y="266" type="line"/>
      <point x="326" y="132" type="line"/>
    </contour>
    <contour>
      <point x="226" y="500" type="move" name="aboveLC"/>
    </contour>
    <contour>
      <point x="226" y="-20" type="move" name="belowLC"/>
    </contour>
  </outline>
</glyph>
<glyph name="l.a" format="1">
  <advance width="222"/>
  <outline>
    <contour>
      <point x="96" y="0" type="line"/>
      <point x="126" y="0" type="line"/>
      <point x="126" y="722" type="line"/>
      <point x="96" y="722" type="line"/>
    </contour>
    <contour>
      <point x="111" y="500" type="move" name="aboveUC"/>
    </contour>
    <contour>
      <point x="112" y="730" type="move" name="aboveLC"/>
    </contour>
    <contour>
      <point x="112" y="-20" type="move" name="belowLC"/>
    </contour>
  </outline>
</glyph>
<glyph name="lbeltretroflex" format="1">
  <advance width="242"/>
  <outline>
    <contour>
      <point x="108" y="340" type="curve" smooth="yes"/>
      <point x="242" y="340" type="line"/>
      <point x="242" y="368" type="line"/>
      <point x="102" y="368" type="line" smooth="yes"/>
      <point x="52" y="368"/>
      <point x="30" y="388"/>
      <point x="30" y="412" type="curve" smooth="yes"/>
      <point x="30" y="432"/>
      <point x="41" y="450"/>
      <point x="68" y="450" type="curve" smooth="yes"/>
      <point x="108" y="450"/>
      <point x="120" y="414"/>
      <point x="120" y="378" type="curve"/>
      <point x="140" y="370" type="line"/>
      <point x="140" y="406"/>
      <point x="132" y="478"/>
      <point x="64" y="478" type="curve" smooth="yes"/>
      <point x="24" y="478"/>
      <point x="-2" y="450"/>
      <point x="-2" y="414" type="curve" smooth="yes"/>
      <point x="-2" y="371"/>
      <point x="34" y="340"/>
    </contour>
    <component base="lretroflex" xOffset="24"/>
  </outline>
</glyph>
<glyph name="liraturkish" format="1">
  <advance width="472"/>
  <outline>
    <contour>
      <point x="136" y="-12" type="line"/>
      <point x="288" y="-14"/>
      <point x="438" y="54"/>
      <point x="438" y="212" type="curve" smooth="yes"/>
      <point x="438" y="234"/>
      <point x="436" y="248"/>
      <point x="430" y="274" type="curve"/>
      <point x="402" y="264" type="line"/>
      <point x="408" y="242"/>
      <point x="408" y="226"/>
      <point x="408" y="210" type="curve" smooth="yes"/>
      <point x="408" y="78"/>
      <point x="268" y="18"/>
      <point x="168" y="18" type="curve"/>
      <point x="168" y="310" type="line"/>
      <point x="348" y="404" type="line"/>
      <point x="348" y="434" type="line"/>
      <point x="168" y="340" type="line"/>
      <point x="168" y="426" type="line"/>
      <point x="348" y="520" type="line"/>
      <point x="348" y="550" type="line"/>
      <point x="168" y="456" type="line"/>
      <point x="168" y="640" type="line"/>
      <point x="136" y="640" type="line"/>
      <point x="136" y="440" type="line"/>
      <point x="30" y="386" type="line"/>
      <point x="30" y="356" type="line"/>
      <point x="136" y="410" type="line"/>
      <point x="136" y="324" type="line"/>
      <point x="30" y="270" type="line"/>
      <point x="30" y="240" type="line"/>
      <point x="136" y="294" type="line"/>
    </contour>
  </outline>
</glyph>
<glyph name="macrondoublebelowcmb" format="1">
  <outline>
    <contour>
      <point x="-420" y="-156" type="line"/>
      <point x="420" y="-156" type="line"/>
      <point x="420" y="-128" type="line"/>
      <point x="-420" y="-128" type="line"/>
    </contour>
  </outline>
</glyph>
<glyph name="ohorn" format="1">
  <advance width="532"/>
  <outline>
    <contour>
      <point x="383" y="446" type="line"/>
      <point x="434" y="460"/>
      <point x="492" y="492"/>
      <point x="492" y="570" type="curve" smooth="yes"/>
      <point x="492" y="592"/>
      <point x="485" y="614"/>
      <point x="474" y="636" type="curve"/>
      <point x="446" y="620" type="line"/>
      <point x="456" y="603"/>
      <point x="460" y="583"/>
      <point x="460" y="568" type="curve" smooth="yes"/>
      <point x="460" y="510"/>
      <point x="424" y="478"/>
      <point x="352" y="467" type="curve"/>
    </contour>
    <component base="o"/>
    <contour>
      <point x="266" y="500" type="move" name="aboveLC"/>
    </contour>
    <contour>
      <point x="266" y="-20" type="move" name="belowLC"/>
    </contour>
  </outline>
</glyph>
<glyph name="omegalatinclosed" format="1">
  <advance width="664"/>
  <outline>
    <contour>
      <point x="208" y="-12" type="curve" smooth="yes"/>
      <point x="260" y="-12"/>
      <point x="308" y="16"/>
      <point x="330" y="72" type="curve"/>
      <point x="334" y="72" type="line"/>
      <point x="356" y="16"/>
      <point x="404" y="-12"/>
      <point x="456" y="-12" type="curve" smooth="yes"/>
      <point x="540" y="-12"/>
      <point x="604" y="55"/>
      <point x="604" y="212" type="curve" smooth="yes"/>
      <point x="604" y="354"/>
      <point x="506" y="490"/>
      <point x="334" y="490" type="curve" smooth="yes"/>
      <point x="160" y="490"/>
      <point x="60" y="350"/>
      <point x="60" y="210" type="curve" smooth="yes"/>
      <point x="60" y="58"/>
      <point x="130" y="-12"/>
    </contour>
    <contour>
      <point x="210" y="16" type="curve" smooth="yes"/>
      <point x="146" y="16"/>
      <point x="90" y="80"/>
      <point x="90" y="206" type="curve" smooth="yes"/>
      <point x="90" y="344"/>
      <point x="184" y="462"/>
      <point x="333" y="462" type="curve" smooth="yes"/>
      <point x="482" y="462"/>
      <point x="572" y="346"/>
      <point x="572" y="212" type="curve" smooth="yes"/>
      <point x="572" y="75"/>
      <point x="522" y="16"/>
      <point x="454" y="16" type="curve" smooth="yes"/>
      <point x="403" y="16"/>
      <point x="346" y="48"/>
      <point x="346" y="160" type="curve" smooth="yes"/>
      <point x="346" y="270" type="line"/>
      <point x="316" y="270" type="line"/>
      <point x="316" y="160" type="line" smooth="yes"/>
      <point x="316" y="48"/>
      <point x="261" y="16"/>
    </contour>
    <contour>
      <point x="326" y="502" type="move" name="aboveLC"/>
    </contour>
    <contour>
      <point x="326" y="-22" type="move" name="belowLC"/>
    </contour>
  </outline>
</glyph>
<glyph name="qhook" format="1">
  <advance width="540"/>
  <outline>
    <contour>
      <point x="444" y="474" type="line" smooth="yes"/>
      <point x="444" y="536"/>
      <point x="460" y="582"/>
      <point x="508" y="582" type="curve" smooth="yes"/>
      <point x="524" y="582"/>
      <point x="537" y="578"/>
      <point x="548" y="574" type="curve"/>
      <point x="556" y="600" type="line"/>
      <point x="543" y="606"/>
      <point x="526" y="610"/>
      <point x="510" y="610" type="curve" smooth="yes"/>
      <point x="452" y="610"/>
      <point x="414" y="570"/>
      <point x="414" y="478" type="curve"/>
      <point x="416" y="431" type="line"/>
      <point x="366" y="469"/>
      <point x="326" y="490"/>
      <point x="268" y="490" type="curve" smooth="yes"/>
      <point x="152" y="490"/>
      <point x="54" y="392"/>
      <point x="54" y="238" type="curve" smooth="yes"/>
      <point x="54" y="76"/>
      <point x="132" y="-12"/>
      <point x="252" y="-12" type="curve" smooth="yes"/>
      <point x="318" y="-12"/>
      <point x="372" y="24"/>
      <point x="416" y="66" type="curve"/>
      <point x="414" y="-32" type="line"/>
      <point x="414" y="-222" type="line"/>
      <point x="444" y="-222" type="line"/>
    </contour>
    <contour>
      <point x="254" y="16" type="curve" smooth="yes"/>
      <point x="146" y="16"/>
      <point x="86" y="106"/>
      <point x="86" y="238" type="curve" smooth="yes"/>
      <point x="86" y="362"/>
      <point x="164" y="462"/>
      <point x="266" y="462" type="curve" smooth="yes"/>
      <point x="316" y="462"/>
      <point x="360" y="444"/>
      <point x="414" y="396" type="curve"/>
      <point x="414" y="100" type="line"/>
      <point x="360" y="46"/>
      <point x="310" y="16"/>
    </contour>
    <contour>
      <point x="266" y="502" type="move" name="aboveLC"/>
    </contour>
    <contour>
      <point x="422" y="-218" type="move" name="belowLC"/>
    </contour>
  </outline>
</glyph>
<glyph name="tbar" format="1">
  <advance width="302"/>
  <outline>
    <contour>
      <point x="30" y="238" type="line"/>
      <point x="278" y="238" type="line"/>
      <point x="278" y="266" type="line"/>
      <point x="106" y="266" type="line"/>
      <point x="30" y="262" type="line"/>
    </contour>
    <component base="t"/>
    <contour>
      <point x="124" y="630" type="move" name="aboveLC"/>
    </contour>
    <contour>
      <point x="194" y="-20" type="move" name="belowLC"/>
    </contour>
  </outline>
</glyph>
<glyph name="thook" format="1">
  <advance width="302"/>
  <outline>
    <contour>
      <point x="136" y="470" type="line"/>
      <point x="136" y="574" type="line"/>
      <point x="136" y="636"/>
      <point x="152" y="682"/>
      <point x="200" y="682" type="curve" smooth="yes"/>
      <point x="216" y="682"/>
      <point x="229" y="678"/>
      <point x="240" y="674" type="curve" smooth="yes"/>
      <point x="248" y="700" type="line"/>
      <point x="235" y="706"/>
      <point x="218" y="710"/>
      <point x="202" y="710" type="curve"/>
      <point x="144" y="710"/>
      <point x="106" y="670"/>
      <point x="106" y="578" type="curve" smooth="yes"/>
      <point x="106" y="470" type="line" smooth="yes"/>
    </contour>
  </outline>
</glyph>
<glyph name="tildeacutecmb.cap" format="1">
  <outline>
    <contour>
      <point x="-8" y="822" type="line"/>
      <point x="92" y="916" type="line"/>
      <point x="70" y="936" type="line"/>
      <point x="-24" y="836" type="line"/>
    </contour>
    <contour>
      <point x="-138" y="726" type="curve"/>
      <point x="-114" y="724" type="line"/>
      <point x="-110" y="757"/>
      <point x="-100" y="780"/>
      <point x="-72" y="780" type="curve" smooth="yes"/>
      <point x="-20" y="780"/>
      <point x="0" y="718"/>
      <point x="70" y="718" type="curve" smooth="yes"/>
      <point x="124" y="718"/>
      <point x="136" y="764"/>
      <point x="138" y="798" type="curve"/>
      <point x="114" y="800" type="line"/>
      <point x="110" y="767"/>
      <point x="100" y="744"/>
      <point x="72" y="744" type="curve" smooth="yes"/>
      <point x="20" y="744"/>
      <point x="0" y="806"/>
      <point x="-70" y="806" type="curve" smooth="yes"/>
      <point x="-124" y="806"/>
      <point x="-136" y="760"/>
    </contour>
    <contour>
      <point x="0" y="682" type="move" name="_aboveUC"/>
    </contour>
  </outline>
</glyph>
<glyph name="tildeacutecmb" format="1">
  <outline>
    <contour>
      <point x="-38" y="698" type="line"/>
      <point x="92" y="786" type="line"/>
      <point x="70" y="814" type="line"/>
      <point x="-56" y="720" type="line"/>
    </contour>
    <contour>
      <point x="-138" y="584" type="curve"/>
      <point x="-114" y="582" type="line"/>
      <point x="-107" y="629"/>
      <point x="-99" y="654"/>
      <point x="-68" y="654" type="curve" smooth="yes"/>
      <point x="-14" y="654"/>
      <point x="0" y="580"/>
      <point x="68" y="580" type="curve" smooth="yes"/>
      <point x="122" y="580"/>
      <point x="135" y="633"/>
      <point x="138" y="676" type="curve"/>
      <point x="114" y="678" type="line"/>
      <point x="107" y="631"/>
      <point x="99" y="606"/>
      <point x="68" y="606" type="curve" smooth="yes"/>
      <point x="14" y="606"/>
      <point x="0" y="680"/>
      <point x="-68" y="680" type="curve" smooth="yes"/>
      <point x="-122" y="680"/>
      <point x="-135" y="627"/>
    </contour>
    <contour>
      <point x="0" y="502" type="move" name="_aboveLC"/>
    </contour>
  </outline>
</glyph>
<glyph name="tugrik" format="1">
  <advance width="472"/>
  <outline>
    <contour>
      <point x="220" y="0" type="line"/>
      <point x="250" y="0" type="line"/>
      <point x="250" y="612" type="line"/>
      <point x="434" y="612" type="line"/>
      <point x="434" y="640" type="line"/>
      <point x="34" y="640" type="line"/>
      <point x="34" y="612" type="line"/>
      <point x="220" y="612" type="line"/>
    </contour>
    <contour>
      <point x="76" y="170" type="line"/>
      <point x="220" y="244" type="line"/>
      <point x="250" y="260" type="line"/>
      <point x="394" y="334" type="line"/>
      <point x="394" y="364" type="line"/>
      <point x="250" y="290" type="line"/>
      <point x="250" y="376" type="line"/>
      <point x="394" y="450" type="line"/>
      <point x="394" y="480" type="line"/>
      <point x="250" y="406" type="line"/>
      <point x="220" y="390" type="line"/>
      <point x="76" y="316" type="line"/>
      <point x="76" y="286" type="line"/>
      <point x="220" y="360" type="line"/>
      <point x="220" y="274" type="line"/>
      <point x="76" y="200" type="line"/>
    </contour>
  </outline>
</glyph>
